REM DIRINDEX 1\2,1\4,1\3\5,1\3\6,1\3\7
REM DIRNAME folder01,folder02,folder03,folder04,folder05,folder06,folder07
TITLE ""
FILE "CD1Track32.mp3" MP3
  TRACK 01 AUDIO
    TITLE "0:"
    INDEX 01 00:00:00
  TRACK 02 AUDIO
    TITLE "5:cjc081_0546"
    INDEX 01 00:00:23
  TRACK 03 AUDIO
    TITLE "0:"
    INDEX 01 00:01:44
  TRACK 04 AUDIO
    TITLE "6:cjc081_0547"
    INDEX 01 00:02:18
  TRACK 05 AUDIO
    TITLE "0:"
    INDEX 01 00:03:12
  TRACK 06 AUDIO
    TITLE "5:cjc081_0548"
    INDEX 01 00:03:59
  TRACK 07 AUDIO
    TITLE "0:"
    INDEX 01 00:05:20
  TRACK 08 AUDIO
    TITLE "6:cjc081_0549"
    INDEX 01 00:05:65
  TRACK 09 AUDIO
    TITLE "0:"
    INDEX 01 00:07:19
  TRACK 10 AUDIO
    TITLE "5:cjc081_0550"
    INDEX 01 00:07:60
  TRACK 11 AUDIO
    TITLE "0:"
    INDEX 01 00:09:04
  TRACK 12 AUDIO
    TITLE "6:cjc081_0551"
    INDEX 01 00:09:47
  TRACK 13 AUDIO
    TITLE "0:"
    INDEX 01 00:11:03
  TRACK 14 AUDIO
    TITLE "5:cjc081_0552"
    INDEX 01 00:11:44
  TRACK 15 AUDIO
    TITLE "0:"
    INDEX 01 00:12:58
  TRACK 16 AUDIO
    TITLE "6:cjc081_0553"
    INDEX 01 00:13:35
  TRACK 17 AUDIO
    TITLE "0:"
    INDEX 01 00:15:19
  TRACK 18 AUDIO
    TITLE "5:cjc081_0554"
    INDEX 01 00:15:60
  TRACK 19 AUDIO
    TITLE "0:"
    INDEX 01 00:17:00
  TRACK 20 AUDIO
    TITLE "6:cjc081_0555"
    INDEX 01 00:17:43
  TRACK 21 AUDIO
    TITLE "0:"
    INDEX 01 00:20:04
  TRACK 22 AUDIO
    TITLE "5:cjc081_0556"
    INDEX 01 00:20:45
  TRACK 23 AUDIO
    TITLE "0:"
    INDEX 01 00:22:01
  TRACK 24 AUDIO
    TITLE "6:cjc081_0557"
    INDEX 01 00:22:48
  TRACK 25 AUDIO
    TITLE "0:"
    INDEX 01 00:25:25
  TRACK 26 AUDIO
    TITLE "5:cjc081_0558"
    INDEX 01 00:25:68
  TRACK 27 AUDIO
    TITLE "0:"
    INDEX 01 00:27:18
  TRACK 28 AUDIO
    TITLE "6:cjc081_0559"
    INDEX 01 00:27:67
  TRACK 29 AUDIO
    TITLE "0:"
    INDEX 01 00:29:03
  TRACK 30 AUDIO
    TITLE "5:cjc081_0560"
    INDEX 01 00:29:46
  TRACK 31 AUDIO
    TITLE "0:"
    INDEX 01 00:31:33
  TRACK 32 AUDIO
    TITLE "6:cjc081_0561"
    INDEX 01 00:32:03
  TRACK 33 AUDIO
    TITLE "0:"
    INDEX 01 00:34:22
  TRACK 34 AUDIO
    TITLE "5:cjc081_0562"
    INDEX 01 00:34:61
  TRACK 35 AUDIO
    TITLE "0:"
    INDEX 01 00:36:11
  TRACK 36 AUDIO
    TITLE "6:cjc081_0563"
    INDEX 01 00:36:58
  TRACK 37 AUDIO
    TITLE "0:"
    INDEX 01 00:38:06
  TRACK 38 AUDIO
    TITLE "5:cjc081_0564"
    INDEX 01 00:38:51
  TRACK 39 AUDIO
    TITLE "0:"
    INDEX 01 00:40:05
  TRACK 40 AUDIO
    TITLE "6:cjc081_0565"
    INDEX 01 00:40:50
  TRACK 41 AUDIO
    TITLE "0:"
    INDEX 01 00:42:06
  TRACK 42 AUDIO
    TITLE "5:cjc081_0566"
    INDEX 01 00:42:51
  TRACK 43 AUDIO
    TITLE "0:"
    INDEX 01 00:43:74
  TRACK 44 AUDIO
    TITLE "6:cjc081_0567"
    INDEX 01 00:44:46
  TRACK 45 AUDIO
    TITLE "0:"
    INDEX 01 00:46:64
  TRACK 46 AUDIO
    TITLE "5:cjc081_0568"
    INDEX 01 00:47:30
  TRACK 47 AUDIO
    TITLE "0:"
    INDEX 01 00:48:53
  TRACK 48 AUDIO
    TITLE "6:cjc081_0569"
    INDEX 01 00:49:21
  TRACK 49 AUDIO
    TITLE "0:"
    INDEX 01 00:50:35
  TRACK 50 AUDIO
    TITLE "5:cjc081_0570"
    INDEX 01 00:51:05
  TRACK 51 AUDIO
    TITLE "0:"
    INDEX 01 00:52:37
  TRACK 52 AUDIO
    TITLE "6:cjc081_0571"
    INDEX 01 00:53:08
  TRACK 53 AUDIO
    TITLE "0:"
    INDEX 01 00:54:38
  TRACK 54 AUDIO
    TITLE "5:cjc081_0572"
    INDEX 01 00:55:10
  TRACK 55 AUDIO
    TITLE "0:"
    INDEX 01 00:56:45
  TRACK 56 AUDIO
    TITLE "6:cjc081_0573"
    INDEX 01 00:57:25
  TRACK 57 AUDIO
    TITLE "0:"
    INDEX 01 00:59:08
  TRACK 58 AUDIO
    TITLE "5:cjc081_0574"
    INDEX 01 00:59:55
  TRACK 59 AUDIO
    TITLE "0:"
    INDEX 01 01:00:64
  TRACK 60 AUDIO
    TITLE "6:cjc081_0575"
    INDEX 01 01:01:40
  TRACK 61 AUDIO
    TITLE "0:"
    INDEX 01 01:03:57
  TRACK 62 AUDIO
    TITLE "7:cjc081_0576"
    INDEX 01 01:05:19
  TRACK 63 AUDIO
    TITLE "0:"
    INDEX 01 01:16:26
